Coordinates
version=1
nRows=14
nColumns=42
inDegrees=yes

Units are S.I. units (second, meters, Newtons, ...)
If the header above contains a line with 'inDegrees', this indicates whether rotational values are in degrees (yes) or radians (no).

endheader
time	pelvis_tilt	pelvis_list	pelvis_rotation	pelvis_tx	pelvis_ty	pelvis_tz	hip_flexion_r	hip_adduction_r	hip_rotation_r	knee_angle_r	knee_adduction_r	knee_angle_r_beta	ankle_angle_r	subtalar_angle_r	mtp_angle_r	hip_flexion_l	hip_adduction_l	hip_rotation_l	knee_angle_l	knee_adduction_l	knee_angle_l_beta	ankle_angle_l	subtalar_angle_l	mtp_angle_l	lumbar_extension	lumbar_bending	lumbar_rotation	arm_flex_r	arm_add_r	arm_rot_r	elbow_flex_r	pro_sup_r	wrist_flex_r	wrist_dev_r	arm_flex_l	arm_add_l	arm_rot_l	elbow_flex_l	pro_sup_l	wrist_flex_l	wrist_dev_l
      0.50000000	      2.82890021	     -9.44837101	     -3.87940218	     -1.67233880	      0.83230297	      0.35349957	      6.92024549	      7.38156485	    -26.32276005	     20.89576698	     -2.63604796	      0.36469993	     15.75097059	     24.00787161	     -9.55972868	     -2.08683765	    -16.53501528	    -18.49308649	     42.52538442	     -8.11299423	      0.74220797	     18.78297488	     27.45168664	     -9.55972868	    -22.22170464	     11.98667778	      3.17498167	    -10.27847457	     -3.56031928	    -10.37602472	    108.45673455	     90.00000001	      0.00000000	      0.00000000	     -6.12711321	    -10.12067520	    -25.09557092	     46.11472132	     90.00000001	      0.00000000	      0.00000000
      0.51000000	      2.75076523	     -9.30482858	     -3.92029507	     -1.67020968	      0.83237726	      0.35481128	      6.78996762	      7.33244744	    -26.24996913	     20.81458206	     -2.58688375	      0.36328299	     15.99654655	     24.05862246	     -9.50718493	     -0.92796900	    -16.62024232	    -17.73532180	     44.54204162	     -8.29788204	      0.77740528	     17.31490738	     27.36664386	     -9.50718493	    -22.41536538	     11.86967627	      3.18444276	    -10.58225440	     -3.69997156	    -10.65688577	    108.41968904	     90.00000001	      0.00000000	      0.00000000	     -6.00013112	    -10.06721091	    -25.06814710	     46.38722750	     90.00000001	      0.00000000	      0.00000000
      0.52000000	      2.87932264	     -9.00835823	     -4.13039714	     -1.66813900	      0.83276290	      0.35614888	      6.48080399	      7.07605452	    -26.00827713	     20.83905017	     -2.52902081	      0.36371004	     16.09057338	     24.02993520	     -9.48063463	     -0.13660125	    -16.49012688	    -17.30763050	     46.33732748	     -8.44598823	      0.80873893	     16.43214561	     27.29464256	     -9.48063463	    -22.86594172	     11.50890323	      3.30195203	    -10.79636606	     -3.85612615	    -10.84896197	    108.26186849	     90.00000001	      0.00000000	      0.00000000	     -5.81301789	    -10.02488229	    -25.04572971	     46.60992953	     90.00000001	      0.00000000	      0.00000000
      0.53000000	      2.24610344	     -9.09824407	     -4.03304709	     -1.66644776	      0.83199900	      0.35730679	      7.04605577	      7.40650524	    -26.05435224	     20.76292539	     -2.69873985	      0.36238141	     16.35393166	     23.96811022	     -9.39990713	      1.95030086	    -17.06495001	    -16.03996205	     48.76537005	     -8.15379194	      0.85111627	     14.89657901	     26.52121250	     -9.39990713	    -22.46279584	     11.75822134	      3.17493591	    -11.13560847	     -3.96446018	    -11.25512537	    108.14408367	     90.00000001	      0.00000000	      0.00000000	     -5.76665484	     -9.88786226	    -25.10210961	     46.94722835	     90.00000001	      0.00000000	      0.00000000
      0.54000000	      2.47179068	     -8.74851284	     -4.27336932	     -1.66420892	      0.83253317	      0.35840621	      6.64727016	      7.07137608	    -25.79753559	     20.84147206	     -2.71173088	      0.36375231	     16.35582442	     23.88178771	     -9.38257171	      2.49683771	    -16.83077782	    -15.87471911	     50.11056713	     -8.29132674	      0.87459439	     14.48391964	     26.42316338	     -9.38257171	    -22.97552108	     11.33574136	      3.33351689	    -11.41798075	     -4.24091014	    -11.41435537	    107.84905379	     90.00000001	      0.00000000	      0.00000000	     -5.60469914	     -9.82525910	    -25.06421977	     47.11084871	     90.00000001	      0.00000000	      0.00000000
      0.55000000	      1.80191515	     -8.86269815	     -4.07561481	     -1.66294981	      0.83164879	      0.35922174	      7.24039394	      7.31297829	    -25.81182145	     20.76163106	     -2.58992204	      0.36235882	     16.69605085	     23.79902574	     -9.29275108	      4.79277556	    -17.46592570	    -14.81643629	     52.46599643	     -8.03659144	      0.91570438	     13.29401685	     25.15057339	     -9.29275108	    -22.58906733	     11.64651884	      3.16606854	    -11.55433241	     -4.28740717	    -11.87741473	    107.86135781	     90.00000001	      0.00000000	      0.00000000	     -5.44046524	     -9.70264743	    -25.13049168	     47.54045432	     90.00000001	      0.00000000	      0.00000000
      0.56000000	      1.96677655	     -8.49360934	     -4.27073743	     -1.66088989	      0.83211704	      0.36005713	      6.93627706	      6.94374002	    -25.56827748	     20.87481214	     -2.62111787	      0.36433420	     16.65873974	     23.61165358	     -9.27082669	      5.44049661	    -17.30220194	    -14.87052731	     53.53423684	     -8.04608573	      0.93434870	     13.03507902	     24.92138763	     -9.27082669	    -23.04590480	     11.22830668	      3.23487873	    -11.69707704	     -4.49844076	    -11.98308742	    107.58488634	     90.00000001	      0.00000000	      0.00000000	     -5.30740236	     -9.59452216	    -25.04162250	     47.70599080	     90.00000001	      0.00000000	      0.00000000
      0.57000000	      1.83779003	     -8.52499862	     -4.08923885	     -1.65923191	      0.83196052	      0.36047404	      6.78662731	      6.92511720	    -25.59127067	     20.64476715	     -2.24285641	      0.36031916	     17.08433074	     23.70076557	     -9.24049509	      6.93545499	    -17.67896505	    -15.14253824	     55.10687314	     -8.65778744	      0.96179638	     12.55138655	     24.16814614	     -9.24049509	    -23.23112242	     11.42775151	      3.10056568	    -11.73500104	     -4.48678469	    -12.43733285	    107.73127251	     90.00000001	      0.00000000	      0.00000000	     -5.11789644	     -9.48106670	    -25.05323992	     48.08530376	     90.00000001	      0.00000000	      0.00000000
      0.58000000	      1.18541120	     -8.49933591	     -4.10308056	     -1.65799675	      0.83110712	      0.36124833	      7.50163739	      7.05501088	    -25.67689010	     20.77208043	     -2.46150603	      0.36254120	     17.23303295	     23.73750930	     -9.12772421	      8.98368621	    -18.13973931	    -14.65747800	     56.65705056	     -8.30875569	      0.98885208	     12.55957402	     22.39777674	     -9.12772421	    -22.84425956	     11.50325005	      3.06510231	    -11.78314233	     -4.61958547	    -12.59218376	    107.59359540	     90.00000001	      0.00000000	      0.00000000	     -4.97217537	     -9.36393956	    -25.03949521	     48.37974655	     90.00000001	      0.00000000	      0.00000000
      0.59000000	      1.14881390	     -8.38278541	     -4.12099934	     -1.65631957	      0.83117587	      0.36175003	      7.36360564	      6.92912552	    -25.65751199	     20.71961902	     -2.36690472	      0.36162557	     17.35367145	     23.78970530	     -9.09346644	     10.11315266	    -18.36942240	    -15.34854473	     57.46903486	     -8.77361098	      1.00302388	     12.77685466	     21.66805499	     -9.09346644	    -23.12305073	     11.43503937	      3.06107980	    -11.74138004	     -4.70710831	    -12.77627046	    107.52186297	     90.00000001	      0.00000000	      0.00000000	     -4.78730273	     -9.27015314	    -24.98317296	     48.66792533	     90.00000001	      0.00000000	      0.00000000
      0.60000000	      1.03025604	     -8.30638806	     -4.13974157	     -1.65478631	      0.83113789	      0.36217076	      7.34608620	      6.83537768	    -25.66798523	     20.70535171	     -2.27104229	      0.36137656	     17.47868535	     23.87231223	     -9.06357276	     11.35793538	    -18.67268167	    -16.15915784	     58.09343386	     -9.23938357	      1.01392169	     13.21960343	     20.86138597	     -9.06357276	    -23.33020208	     11.41188083	      3.04978230	    -11.63554558	     -4.78692999	    -12.94209724	    107.45605761	     90.00000001	      0.00000000	      0.00000000	     -4.60156121	     -9.17356078	    -24.90266804	     48.92668814	     90.00000001	      0.00000000	      0.00000000
      0.61000000	      0.99912033	     -8.15363413	     -4.16579414	     -1.65321220	      0.83120517	      0.36257418	      7.22678566	      6.65194304	    -25.74685692	     20.66972615	     -2.21424219	      0.36075478	     17.55027834	     23.85941491	     -9.04588752	     12.45194619	    -18.95421827	    -16.92170248	     58.49152033	     -9.39675981	      1.02086961	     13.60766557	     20.32719691	     -9.04588752	    -23.60642368	     11.27690270	      3.02143923	    -11.53549078	     -4.83534121	    -13.02691242	    107.36386529	     90.00000001	      0.00000000	      0.00000000	     -4.38291637	     -9.13017214	    -24.82433321	     49.10969614	     90.00000001	      0.00000000	      0.00000000
      0.62000000	      0.73192901	     -8.16481213	     -4.21237179	     -1.65186666	      0.83092220	      0.36281199	      7.40771578	      6.66899041	    -25.78811449	     20.67353089	     -2.17087120	      0.36082118	     17.68951885	     24.07777226	     -9.02161566	     13.90583996	    -19.33253971	    -18.13656311	     58.70800994	    -10.15260139	      1.02464807	     14.57252343	     19.36780812	     -9.02161566	    -23.68150957	     11.36754972	      3.02621166	    -11.38775288	     -4.89571119	    -13.21923278	    107.30486052	     90.00000001	      0.00000000	      0.00000000	     -4.22147061	     -9.03836203	    -24.71864900	     49.37591168	     90.00000001	      0.00000000	      0.00000000
      0.63000000	      0.42221189	     -8.06145296	     -4.31749460	     -1.65050908	      0.83056495	      0.36307502	      7.69328294	      6.56866596	    -25.80353165	     20.79608025	     -2.20937451	      0.36296007	     17.80256019	     24.28956637	     -8.98901594	     15.33252823	    -19.65937782	    -19.29852313	     58.69497199	    -10.57102327	      1.02442052	     15.43518267	     18.69577119	     -8.98901594	    -23.67829058	     11.29756452	      3.03421577	    -11.26779430	     -4.93371050	    -13.32313109	    107.24537109	     90.00000001	      0.00000000	      0.00000000	     -4.06010240	     -8.98621053	    -24.56911926	     49.59777738	     90.00000001	      0.00000000	      0.00000000
